<?xml version="1.0" encoding="UTF-8"?>
<svg version="1.1" xmlns="http://www.w3.org/2000/svg" width="173" height="140">
<path d="M0 0 C57.09 0 114.18 0 173 0 C173 46.2 173 92.4 173 140 C115.91 140 58.82 140 0 140 C0 93.8 0 47.6 0 0 Z " fill="#FEFEFD" transform="translate(0,0)"/>
<path d="M0 0 C2.15622571 0.00097226 4.30888763 -0.04066043 6.46459961 -0.08496094 C7.84284744 -0.09016879 9.22110757 -0.09285612 10.59936523 -0.09277344 C11.84645264 -0.09986328 13.09354004 -0.10695312 14.37841797 -0.11425781 C18.67147479 0.67420536 20.06822677 2.09596419 22.72827148 5.50097656 C23.90332031 8.01782227 23.90332031 8.01782227 24.68530273 10.67675781 C24.98871582 11.66144043 25.29212891 12.64612305 25.60473633 13.66064453 C25.91362793 14.7010791 26.22251953 15.74151367 26.54077148 16.81347656 C29.51041482 26.22086734 32.88316426 34.89366271 37.64233398 43.52636719 C38.8197156 45.66725354 39.9615362 47.82526206 41.10327148 49.98535156 C49.12977906 64.99294376 58.74842495 78.45772715 70.10327148 91.15722656 C70.84577148 92.01316406 71.58827148 92.86910156 72.35327148 93.75097656 C73.02616211 94.49863281 73.69905273 95.24628906 74.39233398 96.01660156 C75.84789169 98.72342817 76.08374057 100.36186302 75.46704102 103.37304688 C73.75327269 108.30933396 70.97716124 112.75530337 68.35327148 117.25097656 C67.76288086 118.29125 67.17249023 119.33152344 66.56420898 120.40332031 C61.53179583 129.16470627 61.53179583 129.16470627 58.72827148 131.50097656 C56.70483398 131.68066406 56.70483398 131.68066406 54.35327148 131.37597656 C53.45737305 131.25996094 52.56147461 131.14394531 51.63842773 131.02441406 C48.64154481 130.4853774 45.73876641 129.76150654 42.79077148 129.00097656 C24.76042969 124.72294408 5.10030826 126.25444245 -13.27172852 126.50097656 C-14.21097168 126.51354492 -15.15021484 126.52611328 -16.11791992 126.5390625 C-25.76518144 126.7224634 -34.44588215 127.95470156 -43.72094727 130.66113281 C-47.49502005 131.55379029 -50.41773193 132.00844231 -54.27172852 131.50097656 C-58.60706889 126.72137869 -61.72223399 121.07834598 -65.02172852 115.56347656 C-65.6237207 114.58701172 -66.22571289 113.61054687 -66.84594727 112.60449219 C-67.41442383 111.65380859 -67.98290039 110.703125 -68.56860352 109.72363281 C-69.08777344 108.86519775 -69.60694336 108.0067627 -70.1418457 107.12231445 C-71.48085712 104.01579638 -71.60980532 101.85258511 -71.27172852 98.50097656 C-69.40063477 95.93066406 -69.40063477 95.93066406 -66.83422852 93.37597656 C-65.90436815 92.413756 -64.97868523 91.4474837 -64.05688477 90.47753906 C-63.58782715 89.98543945 -63.11876953 89.49333984 -62.63549805 88.98632812 C-55.20371738 80.89199344 -49.29810211 71.27523987 -43.30981445 62.08837891 C-42.48686404 60.8299538 -41.65106216 59.57993425 -40.81079102 58.33300781 C-32.99303065 46.4489627 -26.87428091 32.69328267 -22.55297852 19.19628906 C-22.2481958 18.24971436 -21.94341309 17.30313965 -21.62939453 16.32788086 C-21.02499781 14.43002063 -20.43389115 12.52786668 -19.85742188 10.62133789 C-19.580354 9.74501709 -19.30328613 8.86869629 -19.01782227 7.96582031 C-18.77733154 7.17812256 -18.53684082 6.3904248 -18.2890625 5.57885742 C-14.78376363 -1.58063349 -6.83551761 -0.02178651 0 0 Z " fill="#FA4712" transform="translate(77.271728515625,0.4990234375)"/>
<path d="M0 0 C8.94219294 26.44655754 8.94219294 26.44655754 12.3269043 38.33959961 C13.89391902 43.79123638 15.79673235 49.08359565 17.75 54.40625 C19.38569871 59.10888379 20.75263428 63.87159053 22.11401367 68.65942383 C23.80934316 74.54842775 25.85838677 80.23616294 28.08203125 85.94921875 C29.03855987 89.12815004 29.17314452 91.70036023 29 95 C21.89269383 94.67247437 15.57260501 93.08671182 8.77734375 91.04296875 C4.1830443 89.77442898 -0.41936029 88.90631184 -5.10791016 88.07470703 C-9.27287915 87.33308293 -13.38521657 86.48164796 -17.5 85.5 C-24.95190153 83.73190908 -32.4693573 82.38220657 -40 81 C-49.07094667 79.30926142 -58.02779056 77.1441707 -67 75 C-65.64891034 72.03674056 -64.11293352 69.79214835 -61.9375 67.375 C-61.31488281 66.67890625 -60.69226562 65.9828125 -60.05078125 65.265625 C-59.37402344 64.51796875 -58.69726562 63.7703125 -58 63 C-57.29230469 62.21109375 -56.58460937 61.4221875 -55.85546875 60.609375 C-52.85111894 57.2630239 -49.8402921 53.92282079 -46.8125 50.59765625 C-42.67325246 46.03709244 -38.64037861 41.40903292 -34.6875 36.6875 C-29.86911778 30.93746169 -24.83152825 25.42168327 -19.71875 19.93359375 C-15.66017229 15.5542951 -11.75582889 11.04900399 -7.87109375 6.515625 C-7.15050781 5.68546875 -6.42992187 4.8553125 -5.6875 4 C-5.03136719 3.236875 -4.37523437 2.47375 -3.69921875 1.6875 C-2 0 -2 0 0 0 Z " fill="#FEFCFB" transform="translate(93,22)"/>
</svg>
